<?xml version="1.0" encoding="utf-8"?>
<!-- Generator: Adobe Illustrator 24.1.2, SVG Export Plug-In . SVG Version: 6.00 Build 0)  -->
<svg version="1.1" id="Layer_1" xmlns="http://www.w3.org/2000/svg" xmlns:xlink="http://www.w3.org/1999/xlink" x="0px" y="0px"
	 viewBox="0 0 403.1 660.3" style="enable-background:new 0 0 403.1 660.3;" xml:space="preserve">
<style type="text/css">
	.st0{fill:#FFFFFF;}
</style>
<g>
	<path class="st0" d="M175.79,330.17c27.64,27.61,54.65,54.57,81.63,81.54c41.37,41.35,82.89,82.55,124.01,124.13
		c20.08,20.3,26.31,45.02,18.23,72.3c-8.1,27.34-27,44.49-54.88,50.39c-25.65,5.43-48.22-1.79-66.81-20.31
		c-45.45-45.28-90.76-90.7-136.12-136.06C101.79,462.1,61.68,422.1,21.69,381.96c-23.54-23.63-28.45-58.84-12.13-87.43
		c3.1-5.44,6.95-10.68,11.37-15.11c86.03-86.24,172.05-172.48,258.43-258.36c19.93-19.82,44.68-25.57,71.55-17.56
		c26.48,7.89,43.62,26.06,49.9,53.02c6.17,26.49-0.96,49.81-20.26,69.13c-59.83,59.88-119.7,119.72-179.57,179.57
		C192.75,313.43,184.46,321.59,175.79,330.17z"/>
</g>
</svg>
